<svg width="33" height="18" viewBox="0 0 33 18" fill="none" xmlns="http://www.w3.org/2000/svg">
<path d="M10.395 4.38V4.68C10.075 4.72 9.835 4.805 9.675 4.935C9.515 5.055 9.405 5.25 9.345 5.52C9.295 5.79 9.27 6.17 9.27 6.66V15.03C9.15 15.02 9.025 15.015 8.895 15.015C8.775 15.015 8.645 15.02 8.505 15.03L1.995 6.78V12.54C1.995 13.09 2.025 13.515 2.085 13.815C2.145 14.105 2.275 14.315 2.475 14.445C2.685 14.565 3.01 14.65 3.45 14.7V15C3.26 14.98 3.01 14.97 2.7 14.97C2.39 14.96 2.1 14.955 1.83 14.955C1.6 14.955 1.365 14.96 1.125 14.97C0.885 14.97 0.685 14.98 0.525 15V14.7C0.845 14.65 1.085 14.565 1.245 14.445C1.405 14.325 1.51 14.13 1.56 13.86C1.62 13.58 1.65 13.2 1.65 12.72V5.97C1.65 5.6 1.62 5.33 1.56 5.16C1.51 4.98 1.4 4.86 1.23 4.8C1.07 4.73 0.835 4.69 0.525 4.68V4.38C0.685 4.39 0.885 4.4 1.125 4.41C1.365 4.42 1.6 4.425 1.83 4.425C2.07 4.425 2.3 4.42 2.52 4.41C2.74 4.4 2.94 4.39 3.12 4.38L8.925 11.535V6.84C8.925 6.29 8.895 5.87 8.835 5.58C8.775 5.28 8.64 5.065 8.43 4.935C8.23 4.805 7.91 4.72 7.47 4.68V4.38C7.66 4.39 7.91 4.4 8.22 4.41C8.53 4.42 8.82 4.425 9.09 4.425C9.33 4.425 9.565 4.42 9.795 4.41C10.035 4.4 10.235 4.39 10.395 4.38ZM12.9476 15.105C12.4976 15.105 12.1226 15.02 11.8226 14.85C11.5226 14.68 11.3026 14.455 11.1626 14.175C11.0226 13.885 10.9526 13.57 10.9526 13.23C10.9526 12.8 11.0476 12.45 11.2376 12.18C11.4376 11.91 11.6926 11.69 12.0026 11.52C12.3126 11.35 12.6376 11.21 12.9776 11.1C13.3276 10.99 13.6576 10.885 13.9676 10.785C14.2876 10.675 14.5426 10.55 14.7326 10.41C14.9326 10.26 15.0326 10.07 15.0326 9.84V8.67C15.0326 8.41 14.9876 8.18 14.8976 7.98C14.8176 7.77 14.6876 7.61 14.5076 7.5C14.3376 7.39 14.1126 7.335 13.8326 7.335C13.6326 7.335 13.4326 7.365 13.2326 7.425C13.0326 7.475 12.8676 7.565 12.7376 7.695C13.0176 7.795 13.2326 7.95 13.3826 8.16C13.5426 8.36 13.6226 8.59 13.6226 8.85C13.6226 9.19 13.5026 9.46 13.2626 9.66C13.0326 9.86 12.7576 9.96 12.4376 9.96C12.0776 9.96 11.8026 9.85 11.6126 9.63C11.4326 9.4 11.3426 9.125 11.3426 8.805C11.3426 8.515 11.4126 8.275 11.5526 8.085C11.7026 7.895 11.9076 7.715 12.1676 7.545C12.4476 7.385 12.7826 7.26 13.1726 7.17C13.5726 7.08 14.0026 7.035 14.4626 7.035C14.9226 7.035 15.3376 7.085 15.7076 7.185C16.0776 7.275 16.3876 7.445 16.6376 7.695C16.8676 7.925 17.0176 8.21 17.0876 8.55C17.1576 8.88 17.1926 9.3 17.1926 9.81V13.89C17.1926 14.14 17.2176 14.315 17.2676 14.415C17.3176 14.505 17.4026 14.55 17.5226 14.55C17.6126 14.55 17.6976 14.525 17.7776 14.475C17.8676 14.425 17.9626 14.365 18.0626 14.295L18.2126 14.55C18.0026 14.73 17.7576 14.87 17.4776 14.97C17.2076 15.06 16.9026 15.105 16.5626 15.105C16.1926 15.105 15.8976 15.055 15.6776 14.955C15.4576 14.845 15.2976 14.7 15.1976 14.52C15.1076 14.34 15.0626 14.13 15.0626 13.89C14.8226 14.27 14.5326 14.57 14.1926 14.79C13.8526 15 13.4376 15.105 12.9476 15.105ZM14.0126 14.145C14.2126 14.145 14.3926 14.1 14.5526 14.01C14.7226 13.91 14.8826 13.75 15.0326 13.53V10.455C14.9426 10.605 14.8176 10.74 14.6576 10.86C14.4976 10.98 14.3276 11.105 14.1476 11.235C13.9676 11.355 13.7926 11.49 13.6226 11.64C13.4626 11.79 13.3326 11.975 13.2326 12.195C13.1326 12.415 13.0826 12.68 13.0826 12.99C13.0826 13.38 13.1676 13.67 13.3376 13.86C13.5076 14.05 13.7326 14.145 14.0126 14.145ZM21.6863 4.785V7.245H23.4563V7.545H21.6863V13.605C21.6863 13.905 21.7413 14.12 21.8513 14.25C21.9613 14.37 22.1263 14.43 22.3463 14.43C22.5263 14.43 22.7063 14.365 22.8863 14.235C23.0663 14.095 23.2263 13.86 23.3663 13.53L23.6213 13.665C23.4613 14.115 23.2163 14.485 22.8863 14.775C22.5663 15.065 22.1263 15.21 21.5663 15.21C21.2363 15.21 20.9463 15.165 20.6963 15.075C20.4463 14.995 20.2363 14.87 20.0663 14.7C19.8463 14.48 19.7013 14.21 19.6313 13.89C19.5613 13.56 19.5263 13.135 19.5263 12.615V7.545H18.2662V7.245H19.5263V5.265C19.9463 5.265 20.3313 5.23 20.6813 5.16C21.0413 5.08 21.3763 4.955 21.6863 4.785ZM26.9597 3.27V8.43C27.2097 7.91 27.5447 7.55 27.9647 7.35C28.3947 7.14 28.8747 7.035 29.4047 7.035C29.8347 7.035 30.1797 7.09 30.4397 7.2C30.6997 7.3 30.9047 7.44 31.0547 7.62C31.2247 7.81 31.3447 8.055 31.4147 8.355C31.4947 8.655 31.5347 9.06 31.5347 9.57V13.605C31.5347 14.025 31.6047 14.31 31.7447 14.46C31.8947 14.61 32.1447 14.685 32.4947 14.685V15C32.3047 14.99 32.0147 14.98 31.6247 14.97C31.2447 14.95 30.8747 14.94 30.5147 14.94C30.1247 14.94 29.7447 14.95 29.3747 14.97C29.0147 14.98 28.7447 14.99 28.5647 15V14.685C28.8647 14.685 29.0747 14.61 29.1947 14.46C29.3147 14.31 29.3747 14.025 29.3747 13.605V8.94C29.3747 8.69 29.3497 8.475 29.2997 8.295C29.2497 8.105 29.1547 7.96 29.0147 7.86C28.8847 7.75 28.6947 7.695 28.4447 7.695C28.1747 7.695 27.9247 7.77 27.6947 7.92C27.4747 8.06 27.2947 8.26 27.1547 8.52C27.0247 8.78 26.9597 9.08 26.9597 9.42V13.605C26.9597 14.025 27.0197 14.31 27.1397 14.46C27.2597 14.61 27.4697 14.685 27.7697 14.685V15C27.5897 14.99 27.3247 14.98 26.9747 14.97C26.6247 14.95 26.2697 14.94 25.9097 14.94C25.5197 14.94 25.1247 14.95 24.7247 14.97C24.3347 14.98 24.0397 14.99 23.8397 15V14.685C24.1897 14.685 24.4347 14.61 24.5747 14.46C24.7247 14.31 24.7997 14.025 24.7997 13.605V5.07C24.7997 4.62 24.7297 4.29 24.5897 4.08C24.4597 3.86 24.2097 3.75 23.8397 3.75V3.435C24.1597 3.465 24.4697 3.48 24.7697 3.48C25.1797 3.48 25.5697 3.465 25.9397 3.435C26.3097 3.395 26.6497 3.34 26.9597 3.27Z" fill="#191919"/>
</svg>
